<svg xmlns="http://www.w3.org/2000/svg" viewBox="0 0 64 64">
  <rect width="64" height="64" rx="14" fill="#00a7df"/>
  <path fill="#fff" d="M12 50h40v3H12zM17.5 15a5.5 5.5 0 1 1 11 0 5.5 5.5 0 0 1-11 0Zm-5.3 17.7 7.1-8.8c1-1.2 2.8-1.3 3.9-.2l7.3 7.3-2.4 2.5-4.8-4.6v17.6h-4V31.8l-4.1 5-3-4.1Zm23.3-17.7a5.5 5.5 0 1 1 11 0 5.5 5.5 0 0 1-11 0Zm-2 16 7.3-7.3c1.1-1.1 2.9-1 3.9.2l7.1 8.8-3 4.1-4.1-5v14.7h-4V28.9l-4.8 4.6-2.4-2.5Z"/>
  <path fill="none" stroke="#fff" stroke-linecap="round" stroke-linejoin="round" stroke-width="2.4" d="M32 48V18m0 0c-4 5-4 9.4 0 13.3m0-13.3c4 5 4 9.4 0 13.3m0 8c-4-4.2-7.2-4.7-9.6-1.5m9.6 1.5c4-4.2 7.2-4.7 9.6-1.5"/>
</svg>
