<svg xmlns="http://www.w3.org/2000/svg" viewBox="0 0 274 100">
  <rect x="2" y="3" width="96" height="94" rx="20" fill="#00a7df"/>
  <path fill="#fff" d="M18 79h64v4H18zM24 27a9 9 0 1 1 18 0 9 9 0 0 1-18 0Zm-9 27 12-15c1.7-2 4.6-2.1 6.4-.3L44 49.4l-4.1 4.1-7.2-6.9v25h-6.6V49.8l-6.8 8.4L15 54Zm49-27a9 9 0 1 1 18 0 9 9 0 0 1-18 0Zm-3.8 22.4 10.6-10.7c1.8-1.8 4.7-1.7 6.4.3l12 15-4.3 4.2-6.8-8.4v21.8h-6.6v-25l-7.2 6.9-4.1-4.1Z"/>
  <path fill="none" stroke="#fff" stroke-linecap="round" stroke-linejoin="round" stroke-width="3.5" d="M50 74V28m0 0c-6 7.8-6 14.4 0 19.8m0-19.8c6 7.8 6 14.4 0 19.8m0 13c-6.4-6.3-11.4-7-15.2-2m15.2 2c6.4-6.3 11.4-7 15.2-2"/>
  <text x="108" y="42" fill="#00a7df" font-family="Arial, Helvetica, sans-serif" font-size="24" font-weight="800">SOS CHILDREN'S</text>
  <text x="108" y="73" fill="#00a7df" font-family="Arial, Helvetica, sans-serif" font-size="24" font-weight="800">VILLAGES</text>
</svg>
